<svg width="47" height="48" viewBox="0 0 47 48" fill="none" xmlns="http://www.w3.org/2000/svg">
<path d="M31.3519 12.3897C32.0839 13.1217 33.2699 13.1237 34.0019 12.3897L36.6099 9.7817C37.3409 9.0497 37.3389 7.8637 36.6099 7.1307L30.0269 0.549702C29.2969 -0.182298 28.1109 -0.182298 27.3789 0.549702L24.7699 3.1577C24.0399 3.8897 24.0399 5.0757 24.7699 5.8057L31.3519 12.3897Z" fill="url(#paint0_linear_2_1382)"/>
<path d="M15.766 28.2677C16.497 28.9967 17.683 28.9967 18.414 28.2677L21.023 25.6577C21.755 24.9277 21.755 23.7407 21.023 23.0087L14.44 16.4257C13.709 15.6957 12.523 15.6937 11.791 16.4257L9.18302 19.0337C8.45102 19.7657 8.45302 20.9517 9.18302 21.6837L15.766 28.2677Z" fill="url(#paint1_linear_2_1382)"/>
<path d="M45.6481 28.8937L43.0011 26.2437C42.2671 25.5137 41.0841 25.5137 40.3531 26.2437L39.1921 27.4037L27.9871 16.1967L30.4141 13.7687L23.6811 7.03769L21.2531 9.46569L18.1611 12.5557L15.7871 14.9297L22.5191 21.6627L24.8961 19.2897L36.0991 30.4947L35.0511 31.5437C34.3191 32.2727 34.3171 33.4597 35.0511 34.1917L37.6981 36.8397C38.4321 37.5737 39.6171 37.5737 40.3481 36.8397L45.6471 31.5427C46.3801 30.8097 46.3801 29.6257 45.6481 28.8937Z" fill="url(#paint2_linear_2_1382)"/>
<path d="M26.077 36.9427C26.077 35.7437 25.105 34.7697 23.904 34.7697H6.936C5.736 34.7697 4.763 35.7437 4.763 36.9427V40.4697H0V47.8587H30.558V40.4697H26.077V36.9427Z" fill="url(#paint3_linear_2_1382)"/>
<defs>
<linearGradient id="paint0_linear_2_1382" x1="30.6899" y1="0.000701904" x2="30.6899" y2="12.9395" gradientUnits="userSpaceOnUse">
<stop stop-color="#EF8080"/>
<stop offset="1" stop-color="#F0145A"/>
</linearGradient>
<linearGradient id="paint1_linear_2_1382" x1="15.1034" y1="15.8774" x2="15.1034" y2="28.8144" gradientUnits="userSpaceOnUse">
<stop stop-color="#EF8080"/>
<stop offset="1" stop-color="#F0145A"/>
</linearGradient>
<linearGradient id="paint2_linear_2_1382" x1="30.992" y1="7.03769" x2="30.992" y2="37.3902" gradientUnits="userSpaceOnUse">
<stop stop-color="#EF8080"/>
<stop offset="1" stop-color="#F0145A"/>
</linearGradient>
<linearGradient id="paint3_linear_2_1382" x1="15.279" y1="34.7697" x2="15.279" y2="47.8587" gradientUnits="userSpaceOnUse">
<stop stop-color="#EF8080"/>
<stop offset="1" stop-color="#F0145A"/>
</linearGradient>
</defs>
</svg>
